<svg width="44" height="39" viewBox="0 0 44 39" fill="none" xmlns="http://www.w3.org/2000/svg">
<path fill-rule="evenodd" clip-rule="evenodd" d="M37.236 10.1612C37.6666 11.0083 37.6666 12.1167 37.6666 14.3333V23.8333C37.6666 26.05 37.6666 27.1583 37.236 28.0054C36.8561 28.75 36.2503 29.3553 35.5054 29.7344C34.6583 30.1667 33.55 30.1667 31.3333 30.1667H12.3333C10.1166 30.1667 9.00829 30.1667 8.16121 29.7344C7.41685 29.355 6.81163 28.7498 6.43221 28.0054C5.99996 27.1583 5.99996 26.05 5.99996 23.8333V14.3333C5.99996 12.1167 5.99996 11.0083 6.43221 10.1612C6.81136 9.4163 7.41661 8.8105 8.16121 8.43067C9.00829 8 10.1166 8 12.3333 8H31.3333C33.55 8 34.6583 8 35.5054 8.43067C36.2506 8.81023 36.8564 9.41606 37.236 10.1612ZM33.4755 11.1667H10.191C10.0211 11.1665 9.85551 11.221 9.71891 11.3221C9.5823 11.4233 9.48189 11.5658 9.43252 11.7284C9.38316 11.8911 9.38746 12.0653 9.44479 12.2253C9.50212 12.3854 9.60944 12.5227 9.75087 12.617L20.953 20.1093C21.2135 20.2836 21.5199 20.3766 21.8333 20.3766C22.1467 20.3766 22.4531 20.2836 22.7136 20.1093L33.9157 12.617C34.0571 12.5227 34.1645 12.3854 34.2218 12.2253C34.2791 12.0653 34.2834 11.8911 34.2341 11.7284C34.1847 11.5658 34.0843 11.4233 33.9477 11.3221C33.8111 11.221 33.6455 11.1665 33.4755 11.1667Z" fill="#5A85CC"/>
</svg>
