<svg width="42" height="38" viewBox="0 0 42 38" fill="none" xmlns="http://www.w3.org/2000/svg">
<g clip-path="url(#clip0_918_689)">
<path fill-rule="evenodd" clip-rule="evenodd" d="M21 4C12.7157 4 6 10.7157 6 19C6 27.2843 12.7157 34 21 34C29.2843 34 36 27.2843 36 19C36 10.7157 29.2843 4 21 4ZM8.5 19C8.5 12.0969 14.0938 6.5 21 6.5C27.9031 6.5 33.5 12.0969 33.5 19C33.5 24.5156 29.9219 29.2031 24.9208 30.8427C24.2802 30.9677 24.0615 30.5771 24.0615 30.249C24.0615 30.1148 24.0632 29.8786 24.0654 29.562C24.0701 28.9197 24.0771 27.9467 24.0771 26.826C24.0771 25.6552 23.6708 24.8885 23.2333 24.5135C26.0146 24.2063 28.9365 23.149 28.9365 18.3469C28.9365 16.9823 28.4521 15.8677 27.6552 14.9927C27.7802 14.6771 28.2021 13.4063 27.5302 11.6844C27.5302 11.6844 26.4833 11.349 24.1083 12.9656C23.1083 12.6875 22.0458 12.55 20.9833 12.5437C19.9208 12.55 18.8583 12.6875 17.8583 12.9656C15.4677 11.349 14.4208 11.6844 14.4208 11.6844C13.749 13.4063 14.1708 14.6771 14.3115 14.9927C13.5094 15.8677 13.025 16.9823 13.025 18.3469C13.025 23.1365 15.9427 24.2115 18.7188 24.524C18.3615 24.8365 18.0396 25.3875 17.9271 26.1958C17.2125 26.5156 15.401 27.0677 14.2865 25.1562C14.2865 25.1562 13.6271 23.9562 12.3719 23.8688C12.3719 23.8688 11.1521 23.8531 12.2844 24.6281C12.2844 24.6281 13.1062 25.0135 13.675 26.4562C13.675 26.4562 14.4083 28.8875 17.8854 28.1333C17.8883 28.7118 17.8928 29.2116 17.8962 29.5925C17.899 29.8975 17.901 30.1263 17.901 30.2583C17.901 30.5906 17.6719 30.9771 17.0469 30.8594C12.0812 29.2083 8.5 24.524 8.5 19Z" fill="#5A85CC"/>
</g>
<defs>
<clipPath id="clip0_918_689">
<rect width="30" height="30" fill="white" transform="translate(6 4)"/>
</clipPath>
</defs>
</svg>
