<svg width="42" height="38" viewBox="0 0 42 38" fill="none" xmlns="http://www.w3.org/2000/svg">
<path fill-rule="evenodd" clip-rule="evenodd" d="M36 19C36 27.2843 29.2843 34 21 34C12.7157 34 6 27.2843 6 19C6 10.7157 12.7157 4 21 4C29.2843 4 36 10.7157 36 19ZM12.5391 27.75H16.1672V16.0661H12.5391V27.75ZM12.25 12.3512C12.25 13.5114 13.191 14.4724 14.3512 14.4724C15.5109 14.4724 16.4523 13.5114 16.4523 12.3512C16.4523 11.7939 16.231 11.2595 15.8369 10.8654C15.4429 10.4714 14.9084 10.25 14.3512 10.25C13.7939 10.25 13.2595 10.4714 12.8654 10.8654C12.4714 11.2595 12.25 11.7939 12.25 12.3512ZM26.1258 27.75H29.75V21.3319C29.75 18.1912 29.075 15.7732 25.4031 15.7732C23.6379 15.7732 22.4547 16.7419 21.9703 17.6599H21.9195V16.0661H18.4398V27.75H22.0641V21.9647C22.0641 20.4412 22.3531 18.9686 24.2395 18.9686C26.0984 18.9686 26.1258 20.7069 26.1258 22.0624V27.75Z" fill="#5A85CC"/>
</svg>
